{
    "asset" : {
        "version" : "2.0",
        "generator" : "Khronos glTF Blender I/O v0.9.10"
    },
    "scene" : 0,
    "scenes" : [
        {
            "nodes" : [
                0
            ],
            "name" : "Scene"
        }
    ],
    "nodes" : [
        {
            "mesh" : 0,
            "translation" : [
                0.8209037780761719,
                0.4654124677181244,
                -0.30984076857566833
            ],
            "name" : "Sphere"
        }
    ],
    "materials" : [
        {
            "name" : "Material.005",
            "pbrMetallicRoughness" : {}
        },
        {
            "name" : "Material.004",
            "pbrMetallicRoughness" : {}
        },
        {
            "name" : "Material.001",
            "pbrMetallicRoughness" : {}
        }
    ],
    "meshes" : [
        {
            "primitives" : [
                {
                    "attributes" : {
                        "NORMAL" : 0,
                        "POSITION" : 1
                    },
                    "indices" : 2,
                    "material" : 0
                },
                {
                    "attributes" : {
                        "NORMAL" : 3,
                        "POSITION" : 4
                    },
                    "indices" : 5,
                    "material" : 1
                },
                {
                    "attributes" : {
                        "NORMAL" : 6,
                        "POSITION" : 7
                    },
                    "indices" : 8,
                    "material" : 2
                }
            ],
            "name" : "Sphere.001"
        }
    ],
    "accessors" : [
        {
            "bufferView" : 0,
            "type" : "VEC3",
            "count" : 160,
            "componentType" : 5126
        },
        {
            "bufferView" : 1,
            "min" : [
                -0.7506226897239685,
                7.549790126404332e-08,
                -0.7506223320960999
            ],
            "max" : [
                0.7506226897239685,
                0.1006026640534401,
                0.7506230473518372
            ],
            "componentType" : 5126,
            "count" : 160,
            "type" : "VEC3"
        },
        {
            "bufferView" : 2,
            "type" : "SCALAR",
            "count" : 240,
            "componentType" : 5123
        },
        {
            "bufferView" : 3,
            "type" : "VEC3",
            "count" : 100,
            "componentType" : 5126
        },
        {
            "bufferView" : 4,
            "min" : [
                -0.9988765716552734,
                -0.06781285256147385,
                -0.9988202452659607
            ],
            "max" : [
                0.9988765716552734,
                0.06781300157308578,
                0.998820960521698
            ],
            "componentType" : 5126,
            "count" : 100,
            "type" : "VEC3"
        },
        {
            "bufferView" : 5,
            "type" : "SCALAR",
            "count" : 192,
            "componentType" : 5123
        },
        {
            "bufferView" : 6,
            "type" : "VEC3",
            "count" : 382,
            "componentType" : 5126
        },
        {
            "bufferView" : 7,
            "min" : [
                -0.9988765716552734,
                -1,
                -0.9988202452659607
            ],
            "max" : [
                0.9988765716552734,
                0.1006026640534401,
                0.998820960521698
            ],
            "componentType" : 5126,
            "count" : 382,
            "type" : "VEC3"
        },
        {
            "bufferView" : 8,
            "type" : "SCALAR",
            "count" : 570,
            "componentType" : 5123
        }
    ],
    "bufferViews" : [
        {
            "buffer" : 0,
            "byteLength" : 1920,
            "byteOffset" : 0
        },
        {
            "buffer" : 0,
            "byteLength" : 1920,
            "byteOffset" : 1920
        },
        {
            "buffer" : 0,
            "byteLength" : 480,
            "byteOffset" : 3840
        },
        {
            "buffer" : 0,
            "byteLength" : 1200,
            "byteOffset" : 4320
        },
        {
            "buffer" : 0,
            "byteLength" : 1200,
            "byteOffset" : 5520
        },
        {
            "buffer" : 0,
            "byteLength" : 384,
            "byteOffset" : 6720
        },
        {
            "buffer" : 0,
            "byteLength" : 4584,
            "byteOffset" : 7104
        },
        {
            "buffer" : 0,
            "byteLength" : 4584,
            "byteOffset" : 11688
        },
        {
            "buffer" : 0,
            "byteLength" : 1140,
            "byteOffset" : 16272
        }
    ],
    "buffers" : [
        {
            "byteLength" : 17412,
            "uri" : "data:application/octet-stream;base64,"
        }
    ]
}
